<svg width="444" height="16" viewBox="0 0 444 16" fill="none" xmlns="http://www.w3.org/2000/svg">
<path fill-rule="evenodd" clip-rule="evenodd" d="M0 8H196V9H0V8ZM248 8H444V9H248V8Z" fill="#CEE3E9"/>
<path d="M218 3C218 1.34315 216.657 0 215 0C213.343 0 212 1.34315 212 3V13C212 14.6569 213.343 16 215 16C216.657 16 218 14.6569 218 13V3Z" fill="#CEE3E9"/>
<path d="M232 3C232 1.34315 230.657 0 229 0C227.343 0 226 1.34315 226 3V13C226 14.6569 227.343 16 229 16C230.657 16 232 14.6569 232 13V3Z" fill="#CEE3E9"/>
</svg>
